<?xml version="1.0"?>
<svg xmlns="http://www.w3.org/2000/svg" id="Layer_3" enable-background="new 0 0 64 64" height="512px" viewBox="0 0 64 64" width="512px" class=""><g><path d="m61 61v-24c0-.066-.007-.131-.02-.196l-1.98-9.903v-5.901h-2v5.901l-1.98 9.902c-.013.066-.02.131-.02.197v3.074l-4-5.167v-10.907h2v-2h-2v-5c0-.066-.007-.131-.02-.196l-1.98-9.903v-5.901h-2v5.901l-1.98 9.902c-.013.066-.02.131-.02.197v5h-2v-5c0-.066-.007-.131-.02-.196l-1.98-9.903v-5.901h-2v5.901l-1.98 9.902c-.003.013-.002.027-.004.041l-4.224-5.457c-.379-.489-1.203-.489-1.582 0l-4.224 5.457c-.002-.013-.001-.027-.004-.041l-1.982-9.902v-5.901h-2v5.901l-1.98 9.902c-.013.066-.02.131-.02.197v5h-2v-5c0-.066-.007-.131-.02-.196l-1.98-9.903v-5.901h-2v5.901l-1.98 9.902c-.013.066-.02.131-.02.197v5h-2v2h2v10.908l-4 5.167v-3.075c0-.066-.007-.131-.02-.196l-1.98-9.903v-5.901h-2v5.901l-1.98 9.902c-.013.066-.02.131-.02.197v24h-2v2h3 4 6 4 4 4 12 4 4 4 6 4 3v-2zm-2-8h-2v-9h2zm-2 2h2v2h-2zm1-22.901 1 5v4.901h-2v-4.901zm-3 11.243v17.658h-4v-22.824zm-14 9.658h-2v-29h2zm-2 2h2v2h-2zm4-27.158 2 2.583v30.575h-2zm4 27.158h2v2h-2zm2-2h-2v-29h2zm-2-35.901 1-5 1 5v4.901h-2zm-2 6.901v3.158l-2-2.583v-.575zm-5-11.901 1 5v4.901h-2v-4.901zm-8 1.534 5 6.459v1.908h-2v2h2v37h-2v-11c0-1.654-1.346-3-3-3s-3 1.346-3 3v11h-2v-37h2v-2h-2v-1.908zm1 47.367h-2v-11c0-.551.448-1 1-1s1 .449 1 1zm-18-6h2v2h-2zm4-24.574 2-2.583v33.157h-2zm6 22.574h-2v-29h2zm-2 2h2v2h-2zm0-37.901 1-5 1 5v4.901h-2zm-2 6.901v.574l-2 2.583v-3.157zm-6-6.901 1-5 1 5v4.901h-2zm2 6.901v29h-2v-29zm-4 14.176v22.824h-4v-17.658zm-6 14.824h-2v-9h2zm0 2v2h-2v-2zm-1-22.901 1 5v4.901h-2v-4.901zm-1 28.901v-2h2v2zm10 0v-2h2v2zm8 0v-2h2v2zm16 0v-2h2v2zm8 0v-2h2v2zm10 0v-2h2v2z" data-original="#000000" class="active-path" data-old_color="#000000" fill="#455B6B"/><path d="m29 19h6v2h-6z" data-original="#000000" class="active-path" data-old_color="#000000" fill="#455B6B"/><path d="m32 24c-1.654 0-3 1.346-3 3v4c0 .552.447 1 1 1h4c.553 0 1-.448 1-1v-4c0-1.654-1.346-3-3-3zm1 6h-2v-3c0-.551.448-1 1-1s1 .449 1 1z" data-original="#000000" class="active-path" data-old_color="#000000" fill="#455B6B"/><path d="m32 34c-1.654 0-3 1.346-3 3v4c0 .552.447 1 1 1h4c.553 0 1-.448 1-1v-4c0-1.654-1.346-3-3-3zm1 6h-2v-3c0-.551.448-1 1-1s1 .449 1 1z" data-original="#000000" class="active-path" data-old_color="#000000" fill="#455B6B"/></g> </svg>
